<svg width="220" height="412" viewBox="0 0 220 412" fill="none" xmlns="http://www.w3.org/2000/svg">
<path d="M4.5 61.5V31.5V16.5L10.5 9.3L22.5 4.5H62.5L87.5 8.5L103.5 13.5L118.5 21L133.5 31.5L141 42.5L149.5 61.5L154.5 78.5L158.5 100.5L162 116.5L167 132.5L154.5 139L133.5 157L112.5 178L96.5 202.5L84.5 224L74.5 251L70 273V285.5L57.5 281.5L36.5 273L20.5 263L10.5 251L4.5 239.5V144V100.5V61.5Z" fill="#161413" stroke="#F3F2F1" stroke-width="9"/>
<path d="M97.5 185L106 190L116.5 176L124.5 166.5L135 157.5L143.5 149.5L153.5 141L164.5 135L157 126L150.5 120L141.5 116.5H129.5H118.5L108 120L99.5 126L91.5 135L88 146.5L86.5 156V166.5L91.5 176L97.5 185Z" fill="#F3F2F1" stroke="black" stroke-width="5"/>
<path d="M66.5 299V287.5L70 277L74.5 252L80.5 234.5L88.5 217L101 196.5L113 177.5L126.5 164L139.5 151.5L153.5 140.5L167 131.5L175.5 140.5L183 151.5L193.5 156.5L206.5 161.5L212 169L214.5 177.5V379V390L212.5 398.5L207.5 403L197.5 405.5L174 403L155 398.5L138.5 388.5L122.5 379L106 365.5L96 355L87 344.5L77.5 332L70 314L66.5 299Z" fill="#F3F2F1" stroke="#161413" stroke-width="11"/>
<path d="M115 196L105 190.5L112 181.5L118.5 173.5L127 163L136 155L146 146.5L158 138L166 134L173 141L175.5 151V163L173 173.5L168 181.5L160.5 190.5L152 197.5L141.5 200H132.5H123.5L115 196Z" fill="#161413" stroke="#F3F2F1" stroke-width="6"/>
</svg>
