<svg xmlns="http://www.w3.org/2000/svg" width="734" height="673" viewBox="0 0 734 673" fill="none">
<mask id="mask0_2204_455" style="mask-type:alpha" maskUnits="userSpaceOnUse" x="0" y="0" width="734" height="673">
<rect x="0.5" width="733" height="673" fill="url(#paint0_radial_2204_455)"/>
</mask>
<g mask="url(#mask0_2204_455)">
<rect x="-11.5" width="85" height="85" fill="#EA580C"/>
<rect x="-11" y="0.5" width="84" height="84" stroke="#F97316" stroke-opacity="0.4"/>
<rect x="72.5" width="85" height="85" fill="#4C1D95" fill-opacity="0.4"/>
<rect x="73" y="0.5" width="84" height="84" stroke="#F97316" stroke-opacity="0.4"/>
<rect x="156.5" width="85" height="85" fill="#EA580C"/>
<rect x="157" y="0.5" width="84" height="84" stroke="#F97316" stroke-opacity="0.4"/>
<rect x="240.5" width="85" height="85" fill="#EA580C"/>
<rect x="241" y="0.5" width="84" height="84" stroke="#F97316" stroke-opacity="0.4"/>
<rect x="324.5" width="85" height="85" fill="#EA580C"/>
<rect x="325" y="0.5" width="84" height="84" stroke="#F97316" stroke-opacity="0.4"/>
<rect x="408.5" width="85" height="85" fill="#4C1D95" fill-opacity="0.4"/>
<rect x="409" y="0.5" width="84" height="84" stroke="#F97316" stroke-opacity="0.4"/>
<rect x="492.5" width="85" height="85" fill="#EA580C"/>
<rect x="493" y="0.5" width="84" height="84" stroke="#F97316" stroke-opacity="0.4"/>
<rect x="576.5" width="85" height="85" fill="#EA580C"/>
<rect x="577" y="0.5" width="84" height="84" stroke="#F97316" stroke-opacity="0.4"/>
<rect x="660.5" width="85" height="85" fill="#EA580C"/>
<rect x="661" y="0.5" width="84" height="84" stroke="#F97316" stroke-opacity="0.4"/>
<rect x="-11.5" y="84" width="85" height="85" fill="#4C1D95" fill-opacity="0.4"/>
<rect x="-11" y="84.5" width="84" height="84" stroke="#F97316" stroke-opacity="0.4"/>
<rect x="72.5" y="84" width="85" height="85" fill="#EA580C"/>
<rect x="73" y="84.5" width="84" height="84" stroke="#F97316" stroke-opacity="0.4"/>
<rect x="156.5" y="84" width="85" height="85" fill="#EA580C"/>
<rect x="157" y="84.5" width="84" height="84" stroke="#F97316" stroke-opacity="0.4"/>
<rect x="240.5" y="84" width="85" height="85" fill="#EA580C"/>
<rect x="241" y="84.5" width="84" height="84" stroke="#F97316" stroke-opacity="0.4"/>
<rect x="324.5" y="84" width="85" height="85" fill="#EA580C"/>
<rect x="325" y="84.5" width="84" height="84" stroke="#F97316" stroke-opacity="0.4"/>
<rect x="408.5" y="84" width="85" height="85" fill="#EA580C"/>
<rect x="409" y="84.5" width="84" height="84" stroke="#F97316" stroke-opacity="0.4"/>
<rect x="492.5" y="84" width="85" height="85" fill="#EA580C"/>
<rect x="493" y="84.5" width="84" height="84" stroke="#F97316" stroke-opacity="0.4"/>
<rect x="576.5" y="84" width="85" height="85" fill="#EA580C"/>
<rect x="577" y="84.5" width="84" height="84" stroke="#F97316" stroke-opacity="0.4"/>
<rect x="660.5" y="84" width="85" height="85" fill="#EA580C"/>
<rect x="661" y="84.5" width="84" height="84" stroke="#F97316" stroke-opacity="0.4"/>
<rect x="-11.5" y="168" width="85" height="85" fill="#EA580C"/>
<rect x="-11" y="168.5" width="84" height="84" stroke="#F97316" stroke-opacity="0.4"/>
<rect x="72.5" y="168" width="85" height="85" fill="#EA580C"/>
<rect x="73" y="168.5" width="84" height="84" stroke="#F97316" stroke-opacity="0.4"/>
<rect x="156.5" y="168" width="85" height="85" fill="#EA580C"/>
<rect x="157" y="168.5" width="84" height="84" stroke="#F97316" stroke-opacity="0.4"/>
<rect x="240.5" y="168" width="85" height="85" fill="#EA580C"/>
<rect x="241" y="168.5" width="84" height="84" stroke="#F97316" stroke-opacity="0.4"/>
<rect x="324.5" y="168" width="85" height="85" fill="#EA580C"/>
<rect x="325" y="168.5" width="84" height="84" stroke="#F97316" stroke-opacity="0.4"/>
<rect x="408.5" y="168" width="85" height="85" fill="#EA580C"/>
<rect x="409" y="168.5" width="84" height="84" stroke="#F97316" stroke-opacity="0.4"/>
<rect x="492.5" y="168" width="85" height="85" fill="#EA580C"/>
<rect x="493" y="168.5" width="84" height="84" stroke="#F97316" stroke-opacity="0.4"/>
<rect x="576.5" y="168" width="85" height="85" fill="#EA580C"/>
<rect x="577" y="168.5" width="84" height="84" stroke="#F97316" stroke-opacity="0.4"/>
<rect x="660.5" y="168" width="85" height="85" fill="#4C1D95" fill-opacity="0.4"/>
<rect x="661" y="168.5" width="84" height="84" stroke="#F97316" stroke-opacity="0.4"/>
<rect x="-11.5" y="252" width="85" height="85" fill="#EA580C"/>
<rect x="-11" y="252.5" width="84" height="84" stroke="#F97316" stroke-opacity="0.4"/>
<rect x="72.5" y="252" width="85" height="85" fill="#EA580C"/>
<rect x="73" y="252.5" width="84" height="84" stroke="#F97316" stroke-opacity="0.4"/>
<rect x="156.5" y="252" width="85" height="85" fill="#EA580C"/>
<rect x="157" y="252.5" width="84" height="84" stroke="#F97316" stroke-opacity="0.4"/>
<rect x="240.5" y="252" width="85" height="85" fill="#EA580C"/>
<rect x="241" y="252.5" width="84" height="84" stroke="#F97316" stroke-opacity="0.4"/>
<rect x="324.5" y="252" width="85" height="85" fill="#EA580C"/>
<rect x="325" y="252.5" width="84" height="84" stroke="#F97316" stroke-opacity="0.4"/>
<rect x="408.5" y="252" width="85" height="85" fill="#EA580C"/>
<rect x="409" y="252.5" width="84" height="84" stroke="#F97316" stroke-opacity="0.4"/>
<rect x="492.5" y="252" width="85" height="85" fill="#EA580C"/>
<rect x="493" y="252.5" width="84" height="84" stroke="#F97316" stroke-opacity="0.4"/>
<rect x="576.5" y="252" width="85" height="85" fill="#EA580C"/>
<rect x="577" y="252.5" width="84" height="84" stroke="#F97316" stroke-opacity="0.4"/>
<rect x="660.5" y="252" width="85" height="85" fill="#EA580C"/>
<rect x="661" y="252.5" width="84" height="84" stroke="#F97316" stroke-opacity="0.4"/>
<rect x="-11.5" y="336" width="85" height="85" fill="#EA580C"/>
<rect x="-11" y="336.5" width="84" height="84" stroke="#F97316" stroke-opacity="0.4"/>
<rect x="72.5" y="336" width="85" height="85" fill="#EA580C"/>
<rect x="73" y="336.5" width="84" height="84" stroke="#F97316" stroke-opacity="0.4"/>
<rect x="156.5" y="336" width="85" height="85" fill="#4C1D95" fill-opacity="0.4"/>
<rect x="157" y="336.5" width="84" height="84" stroke="#F97316" stroke-opacity="0.4"/>
<rect x="240.5" y="336" width="85" height="85" fill="#EA580C"/>
<rect x="241" y="336.5" width="84" height="84" stroke="#F97316" stroke-opacity="0.4"/>
<rect x="324.5" y="336" width="85" height="85" fill="#EA580C"/>
<rect x="325" y="336.5" width="84" height="84" stroke="#F97316" stroke-opacity="0.4"/>
<rect x="408.5" y="336" width="85" height="85" fill="#EA580C"/>
<rect x="409" y="336.5" width="84" height="84" stroke="#F97316" stroke-opacity="0.4"/>
<rect x="492.5" y="336" width="85" height="85" fill="#EA580C"/>
<rect x="493" y="336.5" width="84" height="84" stroke="#F97316" stroke-opacity="0.4"/>
<rect x="576.5" y="336" width="85" height="85" fill="#4C1D95" fill-opacity="0.4"/>
<rect x="577" y="336.5" width="84" height="84" stroke="#F97316" stroke-opacity="0.4"/>
<rect x="660.5" y="336" width="85" height="85" fill="#EA580C"/>
<rect x="661" y="336.5" width="84" height="84" stroke="#F97316" stroke-opacity="0.4"/>
<rect x="-11.5" y="420" width="85" height="85" fill="#EA580C"/>
<rect x="-11" y="420.5" width="84" height="84" stroke="#F97316" stroke-opacity="0.4"/>
<rect x="72.5" y="420" width="85" height="85" fill="#EA580C"/>
<rect x="73" y="420.5" width="84" height="84" stroke="#F97316" stroke-opacity="0.4"/>
<rect x="156.5" y="420" width="85" height="85" fill="#EA580C"/>
<rect x="157" y="420.5" width="84" height="84" stroke="#F97316" stroke-opacity="0.4"/>
<rect x="240.5" y="420" width="85" height="85" fill="#EA580C"/>
<rect x="241" y="420.5" width="84" height="84" stroke="#F97316" stroke-opacity="0.4"/>
<rect x="324.5" y="420" width="85" height="85" fill="#EA580C"/>
<rect x="325" y="420.5" width="84" height="84" stroke="#F97316" stroke-opacity="0.4"/>
<rect x="408.5" y="420" width="85" height="85" fill="#EA580C"/>
<rect x="409" y="420.5" width="84" height="84" stroke="#F97316" stroke-opacity="0.4"/>
<rect x="492.5" y="420" width="85" height="85" fill="#EA580C"/>
<rect x="493" y="420.5" width="84" height="84" stroke="#F97316" stroke-opacity="0.4"/>
<rect x="576.5" y="420" width="85" height="85" fill="#EA580C"/>
<rect x="577" y="420.5" width="84" height="84" stroke="#F97316" stroke-opacity="0.4"/>
<rect x="660.5" y="420" width="85" height="85" fill="#EA580C"/>
<rect x="661" y="420.5" width="84" height="84" stroke="#F97316" stroke-opacity="0.4"/>
<rect x="-11.5" y="504" width="85" height="85" fill="#EA580C"/>
<rect x="-11" y="504.5" width="84" height="84" stroke="#F97316" stroke-opacity="0.4"/>
<rect x="72.5" y="504" width="85" height="85" fill="#EA580C"/>
<rect x="73" y="504.5" width="84" height="84" stroke="#F97316" stroke-opacity="0.4"/>
<rect x="156.5" y="504" width="85" height="85" fill="#EA580C"/>
<rect x="157" y="504.5" width="84" height="84" stroke="#F97316" stroke-opacity="0.4"/>
<rect x="240.5" y="504" width="85" height="85" fill="#EA580C"/>
<rect x="241" y="504.5" width="84" height="84" stroke="#F97316" stroke-opacity="0.4"/>
<rect x="324.5" y="504" width="85" height="85" fill="#EA580C"/>
<rect x="325" y="504.5" width="84" height="84" stroke="#F97316" stroke-opacity="0.4"/>
<rect x="408.5" y="504" width="85" height="85" fill="#EA580C"/>
<rect x="409" y="504.5" width="84" height="84" stroke="#F97316" stroke-opacity="0.4"/>
<rect x="492.5" y="504" width="85" height="85" fill="#EA580C"/>
<rect x="493" y="504.5" width="84" height="84" stroke="#F97316" stroke-opacity="0.4"/>
<rect x="576.5" y="504" width="85" height="85" fill="#EA580C"/>
<rect x="577" y="504.5" width="84" height="84" stroke="#F97316" stroke-opacity="0.4"/>
<rect x="660.5" y="504" width="85" height="85" fill="#EA580C"/>
<rect x="661" y="504.5" width="84" height="84" stroke="#F97316" stroke-opacity="0.4"/>
<rect x="-11.5" y="588" width="85" height="85" fill="#EA580C"/>
<rect x="-11" y="588.5" width="84" height="84" stroke="#F97316" stroke-opacity="0.4"/>
<rect x="72.5" y="588" width="85" height="85" fill="#EA580C"/>
<rect x="73" y="588.5" width="84" height="84" stroke="#F97316" stroke-opacity="0.4"/>
<rect x="156.5" y="588" width="85" height="85" fill="#EA580C"/>
<rect x="157" y="588.5" width="84" height="84" stroke="#F97316" stroke-opacity="0.4"/>
<rect x="240.5" y="588" width="85" height="85" fill="#EA580C"/>
<rect x="241" y="588.5" width="84" height="84" stroke="#F97316" stroke-opacity="0.4"/>
<rect x="324.5" y="588" width="85" height="85" fill="#EA580C"/>
<rect x="325" y="588.5" width="84" height="84" stroke="#F97316" stroke-opacity="0.4"/>
<rect x="408.5" y="588" width="85" height="85" fill="#EA580C"/>
<rect x="409" y="588.5" width="84" height="84" stroke="#F97316" stroke-opacity="0.4"/>
<rect x="492.5" y="588" width="85" height="85" fill="#EA580C"/>
<rect x="493" y="588.5" width="84" height="84" stroke="#F97316" stroke-opacity="0.4"/>
<rect x="576.5" y="588" width="85" height="85" fill="#EA580C"/>
<rect x="577" y="588.5" width="84" height="84" stroke="#F97316" stroke-opacity="0.4"/>
<rect x="660.5" y="588" width="85" height="85" fill="#EA580C"/>
<rect x="661" y="588.5" width="84" height="84" stroke="#F97316" stroke-opacity="0.4"/>
</g>
<defs>
<radialGradient id="paint0_radial_2204_455" cx="0" cy="0" r="1" gradientUnits="userSpaceOnUse" gradientTransform="translate(367 336.5) rotate(90) scale(336.5 366.5)">
<stop stop-color="#2563EB"/>
<stop offset="1" stop-color="white" stop-opacity="0"/>
</radialGradient>
</defs>
</svg>