<svg xmlns="http://www.w3.org/2000/svg" width="733" height="614" viewBox="0 0 733 614" fill="none">
<mask id="mask0_6907_192479" style="mask-type:alpha" maskUnits="userSpaceOnUse" x="0" y="0" width="733" height="673">
<rect width="733" height="673" fill="url(#paint0_radial_6907_192479)"/>
</mask>
<g mask="url(#mask0_6907_192479)">
<rect x="-11.5" y="0.5" width="84" height="84" fill="white" stroke="#fcc0a7"/>
<rect x="72.5" y="0.5" width="84" height="84" fill="#fcc0a7" stroke="#fcc0a7"/>
<rect x="156.5" y="0.5" width="84" height="84" fill="white" stroke="#fcc0a7"/>
<rect x="240.5" y="0.5" width="84" height="84" fill="white" stroke="#fcc0a7"/>
<rect x="324.5" y="0.5" width="84" height="84" fill="white" stroke="#fcc0a7"/>
<rect x="408.5" y="0.5" width="84" height="84" fill="#fcc0a7" stroke="#fcc0a7"/>
<rect x="492.5" y="0.5" width="84" height="84" fill="white" stroke="#fcc0a7"/>
<rect x="576.5" y="0.5" width="84" height="84" fill="white" stroke="#fcc0a7"/>
<rect x="660.5" y="0.5" width="84" height="84" fill="white" stroke="#fcc0a7"/>
<rect x="-11.5" y="84.5" width="84" height="84" fill="#fcc0a7" stroke="#fcc0a7"/>
<rect x="72.5" y="84.5" width="84" height="84" fill="white" stroke="#fcc0a7"/>
<rect x="156.5" y="84.5" width="84" height="84" fill="white" stroke="#fcc0a7"/>
<rect x="240.5" y="84.5" width="84" height="84" fill="white" stroke="#fcc0a7"/>
<rect x="324.5" y="84.5" width="84" height="84" fill="white" stroke="#fcc0a7"/>
<rect x="408.5" y="84.5" width="84" height="84" fill="white" stroke="#fcc0a7"/>
<rect x="492.5" y="84.5" width="84" height="84" fill="white" stroke="#fcc0a7"/>
<rect x="576.5" y="84.5" width="84" height="84" fill="white" stroke="#fcc0a7"/>
<rect x="660.5" y="84.5" width="84" height="84" fill="white" stroke="#fcc0a7"/>
<rect x="-11.5" y="168.5" width="84" height="84" fill="white" stroke="#fcc0a7"/>
<rect x="72.5" y="168.5" width="84" height="84" fill="white" stroke="#fcc0a7"/>
<rect x="156.5" y="168.5" width="84" height="84" fill="white" stroke="#fcc0a7"/>
<rect x="240.5" y="168.5" width="84" height="84" fill="white" stroke="#fcc0a7"/>
<rect x="324.5" y="168.5" width="84" height="84" fill="white" stroke="#fcc0a7"/>
<rect x="408.5" y="168.5" width="84" height="84" fill="white" stroke="#fcc0a7"/>
<rect x="492.5" y="168.5" width="84" height="84" fill="white" stroke="#fcc0a7"/>
<rect x="576.5" y="168.5" width="84" height="84" fill="white" stroke="#fcc0a7"/>
<rect x="660.5" y="168.5" width="84" height="84" fill="#fcc0a7" stroke="#fcc0a7"/>
<rect x="-11.5" y="252.5" width="84" height="84" fill="white" stroke="#fcc0a7"/>
<rect x="72.5" y="252.5" width="84" height="84" fill="white" stroke="#fcc0a7"/>
<rect x="156.5" y="252.5" width="84" height="84" fill="white" stroke="#fcc0a7"/>
<rect x="240.5" y="252.5" width="84" height="84" fill="white" stroke="#fcc0a7"/>
<rect x="324.5" y="252.5" width="84" height="84" fill="white" stroke="#fcc0a7"/>
<rect x="408.5" y="252.5" width="84" height="84" fill="white" stroke="#fcc0a7"/>
<rect x="492.5" y="252.5" width="84" height="84" fill="white" stroke="#fcc0a7"/>
<rect x="576.5" y="252.5" width="84" height="84" fill="white" stroke="#fcc0a7"/>
<rect x="660.5" y="252.5" width="84" height="84" fill="white" stroke="#fcc0a7"/>
<rect x="-11.5" y="336.5" width="84" height="84" fill="white" stroke="#fcc0a7"/>
<rect x="72.5" y="336.5" width="84" height="84" fill="white" stroke="#fcc0a7"/>
<rect x="156.5" y="336.5" width="84" height="84" fill="#fcc0a7" stroke="#fcc0a7"/>
<rect x="240.5" y="336.5" width="84" height="84" fill="white" stroke="#fcc0a7"/>
<rect x="324.5" y="336.5" width="84" height="84" fill="white" stroke="#fcc0a7"/>
<rect x="408.5" y="336.5" width="84" height="84" fill="white" stroke="#fcc0a7"/>
<rect x="492.5" y="336.5" width="84" height="84" fill="white" stroke="#fcc0a7"/>
<rect x="576.5" y="336.5" width="84" height="84" fill="#fcc0a7" stroke="#fcc0a7"/>
<rect x="660.5" y="336.5" width="84" height="84" fill="white" stroke="#fcc0a7"/>
<rect x="-11.5" y="420.5" width="84" height="84" fill="white" stroke="#fcc0a7"/>
<rect x="72.5" y="420.5" width="84" height="84" fill="white" stroke="#fcc0a7"/>
<rect x="156.5" y="420.5" width="84" height="84" fill="white" stroke="#fcc0a7"/>
<rect x="240.5" y="420.5" width="84" height="84" fill="white" stroke="#fcc0a7"/>
<rect x="324.5" y="420.5" width="84" height="84" fill="white" stroke="#fcc0a7"/>
<rect x="408.5" y="420.5" width="84" height="84" fill="white" stroke="#fcc0a7"/>
<rect x="492.5" y="420.5" width="84" height="84" fill="white" stroke="#fcc0a7"/>
<rect x="576.5" y="420.5" width="84" height="84" fill="white" stroke="#fcc0a7"/>
<rect x="660.5" y="420.5" width="84" height="84" fill="white" stroke="#fcc0a7"/>
<rect x="-11.5" y="504.5" width="84" height="84" fill="white" stroke="#fcc0a7"/>
<rect x="72.5" y="504.5" width="84" height="84" fill="white" stroke="#fcc0a7"/>
<rect x="156.5" y="504.5" width="84" height="84" fill="white" stroke="#fcc0a7"/>
<rect x="240.5" y="504.5" width="84" height="84" fill="white" stroke="#fcc0a7"/>
<rect x="324.5" y="504.5" width="84" height="84" fill="white" stroke="#fcc0a7"/>
<rect x="408.5" y="504.5" width="84" height="84" fill="white" stroke="#fcc0a7"/>
<rect x="492.5" y="504.5" width="84" height="84" fill="white" stroke="#fcc0a7"/>
<rect x="576.5" y="504.5" width="84" height="84" fill="white" stroke="#fcc0a7"/>
<rect x="660.5" y="504.5" width="84" height="84" fill="white" stroke="#fcc0a7"/>
<rect x="-11.5" y="588.5" width="84" height="84" fill="white" stroke="#fcc0a7"/>
<rect x="72.5" y="588.5" width="84" height="84" fill="white" stroke="#fcc0a7"/>
<rect x="156.5" y="588.5" width="84" height="84" fill="white" stroke="#fcc0a7"/>
<rect x="240.5" y="588.5" width="84" height="84" fill="white" stroke="#fcc0a7"/>
<rect x="324.5" y="588.5" width="84" height="84" fill="white" stroke="#fcc0a7"/>
<rect x="408.5" y="588.5" width="84" height="84" fill="white" stroke="#fcc0a7"/>
<rect x="492.5" y="588.5" width="84" height="84" fill="white" stroke="#fcc0a7"/>
<rect x="576.5" y="588.5" width="84" height="84" fill="white" stroke="#fcc0a7"/>
<rect x="660.5" y="588.5" width="84" height="84" fill="white" stroke="#fcc0a7"/>
</g>
<defs>
<radialGradient id="paint0_radial_6907_192479" cx="0" cy="0" r="1" gradientUnits="userSpaceOnUse" gradientTransform="translate(366.5 336.5) rotate(90) scale(336.5 366.5)">
<stop stop-color="#2563EB"/>
<stop offset="1" stop-color="white" stop-opacity="0"/>
</radialGradient>
</defs>
</svg>